<?xml version="1.0" standalone="no"?>
<!DOCTYPE svg PUBLIC "-//W3C//DTD SVG 20010904//EN"
 "http://www.w3.org/TR/2001/REC-SVG-20010904/DTD/svg10.dtd">
<svg version="1.0" xmlns="http://www.w3.org/2000/svg"
 width="599.000000pt" height="302.000000pt" viewBox="0 0 599.000000 302.000000"
 preserveAspectRatio="xMidYMid meet">

<g transform="translate(0.000000,302.000000) scale(0.100000,-0.100000)"
fill="#000000" stroke="none">
<path d="M517 2879 c-81 -19 -151 -62 -228 -138 -123 -124 -179 -267 -179
-456 0 -225 38 -302 295 -610 106 -126 206 -245 223 -264 17 -18 28 -39 25
-47 -3 -7 48 -76 118 -161 137 -164 182 -212 226 -238 23 -14 35 -33 53 -89
46 -144 116 -252 197 -304 66 -42 154 -66 214 -58 140 19 341 130 486 269 89
86 107 94 103 44 -3 -37 -1 -46 19 -66 33 -33 56 -17 76 52 36 125 111 257
136 241 5 -3 -2 -27 -16 -54 -35 -69 -48 -133 -35 -180 13 -47 29 -61 75 -64
44 -4 104 40 142 103 14 23 27 40 30 37 5 -5 14 -155 17 -271 1 -22 4 -42 7
-45 3 -3 16 -26 27 -52 45 -103 135 -84 157 33 6 35 9 37 54 42 61 7 230 -8
306 -28 182 -47 238 -69 274 -107 l36 -38 37 37 c21 21 38 43 38 50 0 25 -68
62 -170 92 -131 40 -183 44 -393 34 -92 -4 -172 -6 -177 -5 -6 2 -10 18 -10
36 0 19 -10 45 -22 61 -16 20 -19 30 -10 33 26 8 111 83 128 112 27 45 38 37
31 -22 -12 -100 23 -159 104 -172 33 -5 49 -2 83 18 52 30 121 103 170 180 37
58 46 103 10 52 -104 -147 -174 -209 -229 -204 -28 3 -30 6 -33 50 -3 39 1 50
19 65 69 55 138 128 154 163 33 73 -11 119 -101 105 -38 -5 -56 -15 -84 -44
-41 -45 -88 -101 -128 -156 -45 -61 -121 -125 -149 -125 -18 0 -17 131 1 174
8 19 41 67 73 108 33 40 70 98 82 128 13 30 28 65 34 77 5 12 10 40 11 63 1
34 -4 46 -28 67 -33 28 -66 25 -131 -12 -88 -51 -116 -105 -156 -303 -25 -127
-73 -227 -132 -278 -40 -34 -57 -42 -57 -26 0 5 16 54 35 109 30 87 34 107 26
147 -17 89 -49 98 -120 31 -26 -25 -50 -45 -53 -45 -3 0 -8 14 -12 32 -7 37
-42 78 -65 78 -11 0 -23 -23 -39 -75 -13 -44 -28 -75 -36 -75 -7 0 -18 -11
-24 -25 -26 -56 -241 -239 -296 -251 -74 -16 -138 88 -122 197 13 85 102 189
175 205 120 27 130 41 47 67 -43 14 -56 23 -66 47 -25 59 12 168 64 191 20 9
35 7 80 -12 44 -18 62 -21 84 -13 39 14 41 53 4 95 -24 27 -36 32 -73 32 -24
0 -51 -1 -59 -4 -10 -3 -16 5 -18 24 -4 36 45 87 84 87 26 0 27 2 13 15 -9 9
-35 17 -58 18 -36 1 -47 -3 -68 -28 -21 -24 -24 -36 -21 -76 l5 -47 -42 -16
c-56 -22 -100 -70 -120 -134 -22 -67 -15 -122 20 -168 15 -19 25 -37 24 -38
-2 -2 -28 -11 -58 -22 -78 -28 -135 -85 -156 -158 -38 -130 14 -248 132 -304
18 -9 33 -19 33 -23 0 -4 -26 -18 -57 -30 -61 -23 -173 -31 -227 -16 -42 12
-134 104 -166 167 -25 50 -64 161 -57 165 1 1 27 13 58 27 43 19 71 43 119 99
34 41 74 88 89 104 103 118 131 155 131 168 0 22 82 126 202 258 47 51 234
282 260 320 74 111 115 271 105 419 -20 307 -229 544 -492 557 -55 3 -97 -1
-135 -12 -30 -9 -71 -19 -90 -22 -19 -3 -53 -13 -76 -24 -22 -10 -49 -19 -61
-19 -48 0 -71 -77 -35 -118 9 -12 29 -24 45 -28 23 -5 33 0 60 28 18 19 45 43
60 52 15 10 33 30 40 45 29 60 223 69 337 14 221 -104 341 -379 286 -653 -27
-129 -94 -246 -223 -386 -40 -43 -70 -79 -214 -251 -49 -59 -103 -114 -119
-120 -16 -7 -61 -51 -100 -98 -41 -49 -81 -87 -95 -91 -24 -6 -29 -15 -26 -42
2 -16 -52 -80 -88 -104 -16 -11 -45 -18 -76 -18 -48 0 -51 2 -108 62 -46 49
-57 67 -52 85 4 18 0 24 -20 29 -14 3 -53 38 -88 76 -99 112 -105 118 -120
118 -14 0 -82 77 -306 344 -162 194 -173 211 -208 306 -32 89 -43 262 -23 363
30 160 141 312 275 378 67 32 75 34 180 34 91 0 115 -3 138 -19 15 -10 27 -24
27 -31 0 -8 16 -23 35 -35 19 -12 44 -35 55 -51 27 -37 62 -46 96 -25 62 41
47 136 -22 136 -14 0 -42 9 -62 19 -93 47 -280 72 -375 50z m1448 -1439 c0
-19 -4 -24 -20 -22 -11 2 -28 11 -38 20 -18 16 -18 17 0 24 34 14 58 5 58 -22z
m830 -84 c13 -37 -7 -103 -54 -185 -39 -66 -96 -130 -107 -119 -9 9 14 155 37
231 25 83 57 121 91 108 13 -4 27 -20 33 -35z m242 -368 c-27 -47 -74 -95 -83
-86 -8 8 29 79 62 117 39 47 54 25 21 -31z m-399 -303 c17 -38 15 -55 -8 -55
-17 0 -20 7 -20 40 0 46 11 52 28 15z m14 -130 c-5 -35 -7 -39 -21 -30 -6 3
-11 20 -11 36 0 24 4 30 18 27 13 -2 16 -11 14 -33z"/>
<path d="M3108 2587 c-9 -18 -44 -68 -79 -110 -123 -150 -137 -169 -174 -244
l-38 -75 -76 7 c-83 8 -103 15 -143 52 -30 28 -52 23 -42 -10 15 -52 85 -94
162 -98 23 -2 42 -7 42 -13 0 -19 -150 -234 -184 -264 -52 -45 -100 -55 -197
-41 -102 15 -134 37 -177 119 -32 62 -34 69 -30 150 7 129 54 207 156 257 52
26 66 28 172 28 130 0 146 -6 231 -81 48 -43 87 -55 96 -29 5 17 -36 75 -59
84 -13 5 -67 19 -120 31 -271 62 -462 -36 -496 -255 -23 -141 45 -270 165
-315 64 -24 128 -25 208 -5 70 19 89 35 161 137 30 43 63 82 73 87 10 6 36 33
56 61 22 30 44 50 56 50 11 0 54 7 95 16 42 8 78 13 80 11 3 -3 0 -45 -7 -95
-10 -78 -9 -103 6 -179 27 -136 100 -247 183 -274 44 -14 135 -6 168 16 36 23
64 75 64 118 0 54 -16 46 -36 -18 -22 -69 -39 -84 -100 -91 -93 -10 -155 52
-170 172 -6 48 18 337 32 386 3 11 25 23 54 32 64 19 90 34 90 51 0 19 -19 23
-55 13 -59 -16 -60 -15 -59 75 1 45 5 103 9 128 8 53 -8 94 -51 128 -36 29
-48 27 -66 -12z m2 -102 c0 -13 -9 -66 -19 -117 -11 -51 -22 -109 -26 -130 -5
-34 -8 -37 -58 -48 -90 -20 -96 -20 -101 -12 -6 10 127 254 163 299 31 39 41
41 41 8z"/>
<path d="M3464 2463 c-55 -122 -84 -197 -84 -217 0 -11 -12 -59 -25 -106 -33
-110 -41 -236 -18 -262 9 -10 19 -18 23 -18 18 0 100 138 100 167 0 35 38 108
75 143 34 32 40 20 21 -37 -39 -113 -30 -214 21 -234 58 -22 89 -12 138 44 26
28 52 62 58 75 18 38 27 24 25 -38 -2 -71 17 -105 77 -133 53 -26 99 -16 148
34 22 21 47 39 56 39 22 0 63 29 93 65 28 33 58 88 58 105 0 21 -17 9 -32 -22
-23 -48 -87 -118 -107 -118 -15 0 -17 7 -13 53 3 43 1 55 -16 70 -29 26 -55
18 -65 -20 -8 -25 -5 -41 11 -75 20 -38 20 -44 7 -65 -9 -12 -27 -30 -41 -39
-20 -14 -29 -15 -51 -5 -25 11 -26 14 -19 78 4 37 14 82 23 101 20 42 81 87
128 96 21 4 35 13 35 21 0 19 -77 75 -102 75 -28 0 -89 -34 -122 -69 -17 -17
-35 -31 -42 -31 -7 0 -29 -29 -49 -65 -45 -79 -120 -165 -146 -165 -24 0 -24
11 1 60 11 22 20 46 20 55 0 9 7 29 15 45 9 16 16 52 16 80 3 111 -79 120
-185 21 l-39 -36 7 30 c4 17 27 71 52 121 44 90 51 114 37 128 -4 4 -8 21 -9
37 -2 29 -28 69 -46 69 -4 0 -20 -26 -34 -57z m592 -437 c3 -14 1 -33 -4 -43
-10 -16 -12 -15 -22 11 -11 31 -7 56 9 56 6 0 13 -11 17 -24z"/>
<path d="M4321 2423 c-17 -7 -61 -101 -61 -133 0 -14 12 -43 26 -64 l26 -38
-36 -70 c-20 -39 -34 -73 -31 -77 8 -7 55 49 55 64 0 6 9 24 19 41 16 26 24
30 50 26 36 -5 38 -14 11 -75 -11 -24 -25 -78 -32 -120 -11 -71 -10 -77 13
-123 44 -89 134 -109 195 -45 15 16 46 64 70 107 l44 79 0 -43 c0 -115 145
-140 190 -32 16 39 26 38 34 -4 14 -72 65 -98 121 -62 13 9 48 53 78 99 68
104 79 125 74 140 -2 7 -21 -17 -43 -52 -75 -122 -96 -152 -116 -162 -11 -6
-22 -9 -24 -6 -5 5 42 196 50 204 3 3 1 14 -5 24 -7 14 -21 19 -49 19 l-40 0
-40 -85 c-48 -105 -76 -145 -100 -145 -35 0 -34 41 3 121 38 85 78 124 143
141 24 7 44 15 44 19 0 12 -51 49 -76 55 -51 13 -165 -71 -207 -151 -11 -20
-16 -24 -17 -12 0 31 -17 18 -30 -25 -19 -66 -54 -128 -100 -181 -34 -38 -48
-47 -69 -45 -23 3 -27 9 -35 61 -9 63 2 109 51 215 15 31 30 65 35 75 6 14 0
27 -26 53 -36 36 -35 36 -109 -1 -53 -27 -62 -12 -32 53 47 101 42 163 -13
161 -15 0 -33 -3 -41 -6z m49 -81 c0 -23 -33 -101 -41 -96 -14 8 -11 41 6 74
14 28 35 41 35 22z"/>
<path d="M1041 2372 c-5 -10 -6 -24 -2 -31 6 -10 10 -9 14 3 7 18 52 22 62 6
13 -21 24 -9 13 15 -14 31 -72 36 -87 7z"/>
<path d="M1009 2297 c-24 -13 -71 -41 -104 -61 -47 -30 -53 -37 -30 -32 17 4
63 22 104 41 104 49 136 47 244 -18 26 -16 50 -27 53 -24 9 8 -80 79 -124 98
-57 25 -89 24 -143 -4z"/>
<path d="M573 2273 c-21 -7 -39 -13 -40 -13 -7 -1 -43 -71 -43 -85 0 -55 63
-116 118 -114 29 1 24 3 -21 14 -16 3 -40 18 -53 32 -56 60 -9 153 78 153 24
0 50 -5 58 -10 12 -8 9 -10 -12 -10 -15 0 -29 -4 -32 -9 -3 -4 6 -6 19 -3 37
7 68 -19 140 -118 109 -148 175 -190 300 -190 115 0 226 55 385 189 104 87
164 122 225 131 32 4 40 9 40 25 0 18 -6 20 -76 18 -63 -1 -99 -10 -215 -52
-232 -83 -244 -86 -394 -86 l-135 0 -75 37 c-41 21 -96 51 -121 67 -55 35 -97
42 -146 24z m933 -86 c-27 -23 -77 -66 -110 -95 -34 -29 -101 -73 -150 -97
-82 -42 -94 -45 -165 -45 -83 0 -133 17 -187 63 -32 27 -159 187 -148 187 3 0
18 -9 33 -19 44 -32 123 -59 201 -70 127 -17 255 6 480 87 47 17 87 31 90 31
3 0 -17 -19 -44 -42z"/>
<path d="M947 1882 c-35 -36 -34 -67 0 -89 22 -15 49 -18 138 -18 121 0 151
10 161 51 5 18 0 32 -17 50 -32 34 -44 30 -17 -7 23 -30 23 -31 3 -45 -16 -12
-45 -15 -132 -12 -131 4 -148 12 -115 58 37 49 22 57 -21 12z"/>
<path d="M3925 1774 c-237 -11 -405 -35 -405 -57 0 -6 19 -7 43 -3 23 3 110 9
192 12 172 7 268 -5 443 -59 90 -27 113 -38 145 -71 l38 -40 42 42 42 42 -32
31 c-17 18 -51 37 -79 45 -27 7 -80 23 -119 34 -74 22 -177 30 -310 24z"/>
<path d="M3295 1288 c-55 -43 -73 -142 -35 -191 26 -33 25 -42 -10 -110 -31
-61 -36 -77 -21 -77 5 0 25 32 46 71 26 50 41 69 52 65 8 -3 21 -6 29 -6 20 0
17 -30 -7 -85 -14 -31 -23 -78 -26 -129 -5 -73 -3 -84 19 -116 34 -51 86 -74
136 -61 21 6 48 21 59 33 33 35 123 215 123 245 0 36 -12 20 -38 -50 -36 -96
-114 -197 -153 -197 -27 0 -39 31 -39 101 0 53 7 79 47 167 50 112 50 119 1
155 -25 19 -26 19 -78 -8 -69 -35 -83 -23 -51 42 24 49 37 131 24 149 -17 24
-49 25 -78 2z m43 -101 c-5 -17 -12 -40 -15 -50 -8 -26 -28 -14 -26 16 2 30
32 79 43 72 5 -3 4 -20 -2 -38z"/>
<path d="M4795 1300 c-71 -28 -103 -166 -49 -211 20 -17 18 -34 -16 -101 -16
-32 -30 -64 -30 -70 0 -22 32 17 61 75 22 42 34 57 45 53 9 -3 22 -6 30 -6 19
0 18 -34 -2 -71 -23 -46 -43 -164 -34 -204 23 -103 121 -151 197 -97 36 25
132 196 140 248 8 52 -8 35 -35 -39 -35 -94 -115 -197 -153 -197 -27 0 -39 31
-39 101 0 53 7 79 46 166 44 99 45 104 30 128 -30 45 -51 49 -107 19 -68 -37
-82 -24 -49 46 31 66 33 137 5 155 -12 8 -28 10 -40 5z m23 -113 c-5 -17 -12
-40 -15 -50 -8 -27 -28 -14 -26 18 2 32 30 78 43 70 5 -3 4 -19 -2 -38z"/>
<path d="M5207 1292 c-12 -18 8 -64 40 -92 56 -50 64 -41 36 47 -15 47 -20 53
-44 53 -15 0 -30 -3 -32 -8z"/>
<path d="M3747 1132 c-15 -16 -36 -94 -58 -212 -13 -71 -10 -129 6 -154 15
-22 18 -23 44 -10 30 15 37 29 66 124 21 68 55 127 91 160 24 22 26 23 20 5
-4 -11 -17 -57 -29 -102 -20 -78 -20 -85 -5 -117 21 -42 73 -60 94 -31 16 21
28 116 20 149 -5 19 3 34 38 73 24 26 47 45 51 41 5 -4 3 -14 -3 -21 -18 -21
-45 -166 -39 -209 16 -118 118 -97 207 43 18 27 34 49 37 49 3 0 2 -29 -1 -65
-10 -104 21 -154 103 -169 69 -13 171 67 257 202 57 89 33 83 -34 -8 -73 -99
-158 -165 -195 -151 -18 7 -23 17 -25 59 -3 49 -2 52 35 75 55 35 128 117 142
160 23 68 -18 103 -105 92 -47 -6 -58 -12 -93 -51 -21 -24 -43 -44 -49 -44 -6
0 -31 -33 -56 -73 -47 -76 -122 -164 -131 -155 -5 5 13 102 35 188 12 48 6
115 -12 137 -18 22 -38 15 -90 -32 -57 -51 -68 -55 -68 -22 0 29 -27 67 -48
67 -9 0 -40 -25 -69 -56 l-53 -56 0 37 c0 75 -46 118 -83 77z m769 -146 c-25
-42 -74 -91 -83 -82 -7 7 34 80 63 115 40 47 54 25 20 -33z"/>
<path d="M5223 1108 c-14 -19 -60 -157 -68 -204 -14 -90 24 -164 85 -164 43 0
107 62 164 161 50 85 59 137 12 59 -71 -114 -145 -198 -165 -185 -5 3 3 40 17
82 14 43 28 109 30 146 3 61 1 72 -19 93 -25 27 -42 30 -56 12z"/>
<path d="M5572 1079 c-82 -41 -163 -167 -166 -257 -1 -37 4 -48 32 -73 45 -41
88 -39 130 4 18 18 32 38 32 44 0 6 6 16 14 22 11 9 14 3 19 -30 9 -70 51 -95
111 -67 24 10 166 214 166 238 0 28 -23 2 -70 -80 -49 -86 -103 -146 -120
-135 -5 3 0 31 9 63 31 95 44 163 34 173 -11 11 -65 15 -80 6 -7 -4 -32 -49
-56 -100 -46 -97 -76 -133 -102 -124 -23 9 -18 47 14 119 35 75 94 134 145
144 44 8 46 26 7 53 -37 27 -65 26 -119 0z"/>
<path d="M4267 640 c-149 -8 -297 -33 -297 -51 0 -9 30 -7 215 11 102 10 254
-1 343 -25 204 -57 236 -69 273 -107 l36 -37 36 37 c21 21 37 43 37 49 0 25
-69 62 -175 94 -126 37 -214 43 -468 29z"/>
<path d="M2565 268 c-28 -16 -35 -28 -35 -64 0 -57 46 -88 81 -53 45 45 5 145
-46 117z m39 -24 c21 -20 20 -58 0 -79 -20 -20 -35 -15 -53 17 -13 23 -13 29
2 52 20 30 30 32 51 10z"/>
<path d="M2905 258 c-33 -26 -33 -71 0 -104 24 -24 28 -25 48 -11 32 21 43 59
28 95 -16 38 -44 46 -76 20z m54 -12 c17 -21 9 -77 -12 -90 -15 -9 -21 -7 -33
8 -37 50 7 128 45 82z"/>
<path d="M2108 260 c16 -7 22 -18 23 -42 1 -18 5 -44 10 -58 6 -18 7 -8 4 33
-5 53 -3 58 17 67 18 7 13 9 -27 9 -40 0 -45 -2 -27 -9z"/>
<path d="M2240 251 c-38 -72 29 -153 78 -93 15 20 16 84 0 100 -19 19 -66 15
-78 -7z m62 -8 c22 -20 23 -56 2 -77 -21 -21 -30 -20 -48 6 -20 29 -20 47 1
70 20 22 22 22 45 1z"/>
<path d="M2380 211 c0 -80 16 -93 64 -50 40 35 46 67 18 92 -10 10 -33 17 -50
17 l-32 0 0 -59z m75 29 c18 -20 18 -21 -2 -48 -11 -15 -28 -28 -37 -30 -13
-3 -16 6 -16 47 0 43 3 51 18 51 11 0 27 -9 37 -20z"/>
<path d="M2750 213 c0 -71 14 -90 57 -77 l28 8 -32 4 c-28 3 -33 7 -34 30 -2
90 -19 121 -19 35z"/>
<path d="M3116 248 c-30 -43 -12 -109 30 -113 11 0 26 -5 33 -10 11 -6 13 -4
8 8 -4 10 -2 29 3 43 7 18 6 35 -5 59 -17 41 -46 46 -69 13z m46 -5 c25 -22
24 -69 -2 -83 -11 -6 -25 -8 -30 -5 -17 11 -10 105 8 105 3 0 14 -7 24 -17z"/>
<path d="M3253 216 c2 -48 6 -61 24 -73 20 -14 24 -13 48 11 19 19 25 35 25
71 0 25 -5 45 -10 45 -6 0 -8 -10 -5 -22 12 -51 -29 -118 -56 -91 -6 6 -15 35
-19 64 l-8 54 1 -59z"/>
<path d="M3402 208 c3 -63 3 -63 36 -66 19 -2 32 1 32 8 0 8 -9 10 -25 6 -22
-6 -25 -3 -25 19 0 18 5 25 20 25 11 0 20 5 20 10 0 6 -9 10 -20 10 -13 0 -20
7 -20 19 0 15 8 21 33 24 27 3 26 4 -11 5 l-43 2 3 -62z"/>
<path d="M3602 203 c1 -67 1 -67 7 -18 l6 50 35 -47 c19 -26 38 -47 43 -48 12
0 8 118 -4 126 -9 5 -10 -6 -7 -40 3 -25 2 -46 -3 -46 -4 0 -20 20 -35 45 -14
25 -30 45 -35 45 -5 0 -8 -30 -7 -67z"/>
<path d="M3760 205 l0 -65 29 0 c17 0 33 5 36 11 4 6 -4 9 -22 7 -23 -2 -29 1
-31 20 -3 18 1 22 22 22 14 0 26 5 26 10 0 6 -11 10 -25 10 -18 0 -25 5 -25
19 0 15 8 21 33 24 31 4 31 4 -5 5 l-38 2 0 -65z"/>
<path d="M3896 248 c-9 -12 -16 -35 -16 -50 0 -29 30 -68 53 -68 18 0 52 38
44 47 -4 4 -14 -2 -22 -13 -20 -28 -49 -7 -53 38 -4 48 20 68 50 42 20 -18 21
-18 15 -1 -4 10 -7 21 -7 23 0 15 -52 0 -64 -18z"/>
<path d="M4032 208 c3 -63 3 -63 36 -66 18 -2 32 1 32 8 0 6 -10 8 -25 4 -22
-5 -25 -3 -25 20 0 19 5 26 20 26 11 0 20 5 20 10 0 6 -9 10 -20 10 -13 0 -20
7 -20 19 0 15 8 21 33 24 27 3 26 4 -11 5 l-43 2 3 -62z"/>
<path d="M4170 255 c-18 -21 -3 -47 31 -55 13 -3 25 -14 27 -23 4 -21 -25 -34
-41 -18 -13 13 -27 15 -27 3 0 -5 11 -14 25 -20 21 -10 28 -9 46 9 26 26 21
40 -19 59 -17 8 -32 21 -32 28 0 19 28 26 47 11 14 -12 16 -12 11 1 -7 21 -52
24 -68 5z"/>
<path d="M4309 268 c-7 -23 -6 -119 1 -123 6 -4 10 20 10 59 0 36 -2 66 -5 66
-3 0 -5 -1 -6 -2z"/>
<path d="M4386 263 c24 -5 34 -29 34 -85 0 -21 4 -38 10 -38 6 0 7 23 4 59 -6
52 -5 60 12 64 11 3 -3 5 -31 4 -27 0 -40 -2 -29 -4z"/>
<path d="M4552 249 c-5 -13 -17 -41 -26 -63 -19 -45 -19 -46 -7 -46 5 0 13 9
16 20 9 27 51 26 65 -1 21 -39 21 -12 0 42 -27 69 -37 79 -48 48z m28 -35 c0
-8 -7 -14 -15 -14 -17 0 -18 2 -9 24 7 18 24 12 24 -10z"/>
<path d="M4682 258 c-21 -21 -13 -39 23 -54 37 -15 46 -40 19 -51 -8 -3 -20
-1 -27 6 -13 13 -27 15 -27 3 0 -5 11 -14 25 -20 21 -10 28 -9 45 8 25 25 13
56 -25 66 -28 7 -33 31 -10 40 8 4 22 1 30 -6 12 -10 15 -9 15 4 0 19 -50 22
-68 4z"/>
</g>
</svg>
